<svg width="82" height="103" fill="none" xmlns="http://www.w3.org/2000/svg"><path d="M40.911 67c6.119-5.392 9.216-8.691 14.288-14.951-11.449 4.13-17.713 4.149-28.576 0 4.943 6.12 8.069 9.395 14.288 14.951zM26.607 27.838a14.517 14.517 0 01-.006-.413c0-7.915 6.433-14.332 14.37-14.332 7.936 0 14.369 6.417 14.369 14.332 0 .138-.002.276-.006.413h-7.031v-.03c0-4.055-3.296-7.342-7.362-7.342-4.066 0-7.362 3.287-7.362 7.342v.03h-6.972z" fill="#fff"/><path d="M19.564 27.838h7.102c-.004.137-.006.275-.006.413 0 7.915 6.433 14.332 14.37 14.332 7.936 0 14.37-6.417 14.37-14.332 0-.138-.003-.276-.007-.413h6.984c0 11.791-9.584 21.35-21.407 21.35-11.822 0-21.406-9.559-21.406-21.35z" fill="#fff"/><path d="M48.362 27.838H33.638v.03c0 4.055 3.296 7.342 7.362 7.342 4.066 0 7.362-3.287 7.362-7.343v-.029z" fill="#fff"/><path d="M69 27.897C68.984 12.487 56.454 0 41 0S13.016 12.487 13 27.897h6.8c0-11.661 9.479-21.114 21.17-21.114 11.693 0 21.17 9.453 21.17 21.114H69zM9.639 88.188H4.678L3.71 91H.166l5.303-14.053h3.3L14.15 91h-3.554l-.957-2.813zm-.87-2.579l-1.591-4.697-1.612 4.697H8.77zm12.11-8.662h3.408V91H20.88V76.947zm18.056 14.287c-1.152 0-2.184-.175-3.095-.527-.905-.351-1.673-.843-2.305-1.475a6.379 6.379 0 01-1.445-2.294c-.332-.892-.498-1.876-.498-2.95 0-1.08.166-2.067.498-2.959a6.561 6.561 0 011.445-2.295c.632-.638 1.403-1.132 2.315-1.484.911-.352 1.943-.527 3.095-.527.352 0 .72.026 1.104.078a9.835 9.835 0 012.236.576 6.8 6.8 0 01.977.459l-.928 2.89a6.64 6.64 0 00-1.484-.644 5.76 5.76 0 00-1.748-.254c-.606 0-1.15.088-1.631.264-.482.176-.892.44-1.23.79-.333.346-.59.779-.772 1.3-.183.514-.274 1.113-.274 1.796 0 .626.082 1.195.245 1.71.169.507.416.944.742 1.308.325.365.732.648 1.22.85.489.195 1.058.293 1.71.293.35 0 .693-.033 1.025-.098a6.94 6.94 0 00.947-.254 6.61 6.61 0 001.601-.84l.977 2.735a7.774 7.774 0 01-1.045.625 9.156 9.156 0 01-2.441.81 6.827 6.827 0 01-1.24.117zm19.727-3.046h-4.96L52.733 91H49.19l5.302-14.053h3.301L63.173 91H59.62l-.957-2.813zm-.869-2.579l-1.592-4.697-1.611 4.697h3.203zM77.393 91l-4.082-6.455V91h-3.409V76.947h4.746c.951 0 1.8.134 2.55.4.748.268 1.383.632 1.904 1.094.52.463.917 1.003 1.191 1.621.28.619.42 1.28.42 1.983 0 .456-.072.892-.215 1.308a3.932 3.932 0 01-1.514 2.022 4.187 4.187 0 01-1.191.566L81.211 91h-3.818zm-2.881-6.719c.377 0 .722-.045 1.035-.137a2.33 2.33 0 00.81-.42 1.91 1.91 0 00.528-.693c.123-.28.185-.605.185-.976a2.1 2.1 0 00-.166-.85 1.782 1.782 0 00-.488-.654 2.153 2.153 0 00-.762-.42 3.268 3.268 0 00-1.015-.147H73.31v4.297h1.2zm-52.493 17.778c-.288 0-.546-.044-.774-.132a1.646 1.646 0 01-.576-.369 1.592 1.592 0 01-.361-.574 2.095 2.095 0 01-.125-.737c0-.27.042-.517.125-.74.084-.223.205-.414.36-.573a1.62 1.62 0 01.58-.371c.227-.088.485-.132.773-.132a2.459 2.459 0 01.835.163c.09.034.171.073.245.115l-.232.723a1.666 1.666 0 00-.371-.162 1.44 1.44 0 00-.438-.063c-.15 0-.287.022-.407.066a.803.803 0 00-.5.522 1.348 1.348 0 00-.069.45c0 .156.02.298.061.427a.92.92 0 00.186.327.819.819 0 00.305.212c.122.049.264.074.427.074.088 0 .173-.008.256-.025.083-.016.162-.037.237-.063a1.782 1.782 0 00.4-.21l.245.683a2.034 2.034 0 01-.557.279 2.238 2.238 0 01-.315.08c-.106.02-.209.03-.31.03zm4.932-.762h-1.24l-.242.703h-.887l1.326-3.513h.825L28.08 102h-.89l-.238-.703zm-.218-.645l-.398-1.174-.402 1.174h.8zm4.9 1.348l-1.02-1.614V102h-.852v-3.513h1.186c.238 0 .45.033.637.1.188.067.346.158.476.273a1.187 1.187 0 01.403.9.995.995 0 01-.053.328.965.965 0 01-.379.506c-.09.062-.189.109-.298.141l.855 1.265h-.955zm-.72-1.68c.095 0 .18-.011.259-.034a.57.57 0 00.203-.105.477.477 0 00.131-.173.6.6 0 00.047-.244.525.525 0 00-.042-.213.445.445 0 00-.122-.163.538.538 0 00-.19-.105.817.817 0 00-.254-.037h-.332v1.074h.3zM38.66 102l-1.02-1.614V102h-.853v-3.513h1.187c.237 0 .45.033.637.1s.346.158.476.273a1.187 1.187 0 01.403.9.995.995 0 01-.054.328.962.962 0 01-.378.506c-.09.062-.19.109-.298.141l.854 1.265h-.954zm-.72-1.68a.91.91 0 00.258-.034.57.57 0 00.203-.105.478.478 0 00.132-.173.602.602 0 00.046-.244.525.525 0 00-.041-.213.446.446 0 00-.122-.163.538.538 0 00-.19-.105.818.818 0 00-.255-.037h-.332v1.074h.3zm3.354-1.833h2.402v.764h-1.55v.613h1.108v.686h-1.108v.686h1.682V102h-2.534v-3.513zm5.095 1.277l.059.327V102h-.852v-3.513h.844l1.514 2.29-.056-.325v-1.965h.852V102h-.852l-1.509-2.236zm5.066-.513h-1v-.764h2.85v.764h-.995V102h-.855v-2.749zm5.14 2.046h-1.241l-.242.703h-.886l1.326-3.513h.825L57.722 102h-.889l-.239-.703zm-.218-.645l-.398-1.174-.403 1.174h.801zm3.027-2.165h.852v2.749h1.431V102h-2.283v-3.513z" fill="#fff"/></svg>